<?xml version="1.0" encoding="UTF-8"?>
<svg width="407px" height="80px" viewBox="0 0 407 80" version="1.1" xmlns="http://www.w3.org/2000/svg" xmlns:xlink="http://www.w3.org/1999/xlink">
    <title>Logo_CV</title>
    <defs>
        <path d="M8.52130475,8.4352381 C2.90990725,13.9561905 0.105001559,20.624127 0.105001559,28.4380952 L0.105001559,28.4380952 C0.105001559,32.4879365 0.847308652,36.3 2.33350896,39.8746032 L2.33350896,39.8746032 C3.81907482,43.4501587 6.00031567,46.6298413 8.87754871,49.4133333 L8.87754871,49.4133333 C11.469279,51.9130159 14.5596875,53.8822222 18.1484567,55.3215873 L18.1484567,55.3215873 C21.7359571,56.7609524 25.3161613,57.4809524 28.8890694,57.4809524 L28.8890694,57.4809524 C34.9271348,57.4809524 40.4595433,55.6853968 45.4856602,52.0946032 L45.4856602,52.0946032 C46.641629,51.2695238 47.7094092,50.3892063 48.6896352,49.4542857 L48.6896352,49.4542857 C52.9458465,45.3942857 50.0759096,38.2136508 44.1951878,38.2136508 L44.1951878,38.2136508 L44.1723476,38.2136508 C42.363212,38.2136508 40.6314793,38.9634921 39.4050865,40.2942857 L39.4050865,40.2942857 C38.3877451,41.3974603 37.238438,42.3250794 35.9549447,43.0780952 L35.9549447,43.0780952 C33.9310475,44.264127 31.7022229,44.8574603 29.2684708,44.8574603 L29.2684708,44.8574603 C24.5262705,44.8574603 20.6377233,43.3390476 17.6031465,40.3015873 L17.6031465,40.3015873 C14.5682525,37.2644444 13.0503297,33.3730159 13.0503297,28.6273016 L13.0503297,28.6273016 C13.0503297,24.0720635 14.504173,20.291746 17.4131286,17.2857143 L17.4131286,17.2857143 C20.3214497,14.2806349 24.0523359,12.7774603 28.6045183,12.7774603 L28.6045183,12.7774603 C33.1484528,12.7774603 36.7546695,14.3466667 39.4218995,17.4844444 L39.4218995,17.4844444 C40.6245004,18.8990476 42.3568675,19.7533333 44.2126352,19.7533333 L44.2126352,19.7533333 L44.4483336,19.7533333 C50.2427701,19.7533333 53.1907443,12.7130159 49.0684022,8.63809524 L49.0684022,8.63809524 C47.9761956,7.55777778 46.7662985,6.54920635 45.4387108,5.61174603 L45.4387108,5.61174603 C40.2853866,1.97365079 34.7374341,0.154285714 28.794219,0.154285714 L28.794219,0.154285714 C20.8902346,0.154285714 14.1330195,2.91492063 8.52130475,8.4352381" id="path-1"></path>
        <linearGradient x1="69.732923%" y1="91.8555649%" x2="25.5641337%" y2="5.607807%" id="linearGradient-3">
            <stop stop-color="#007DC5" offset="0%"></stop>
            <stop stop-color="#00C0F3" offset="100%"></stop>
        </linearGradient>
        <path d="M5.61108028,5.57777778 C4.45542868,6.4031746 3.38796571,7.28349206 2.40773967,8.2184127 L2.40773967,8.2184127 C-1.84847155,12.2784127 1.02114809,19.4587302 6.90186984,19.4587302 L6.90186984,19.4587302 L6.92534451,19.4587302 C8.73384567,19.4587302 10.4655783,18.7088889 11.6922884,17.3780952 L11.6922884,17.3780952 C12.7089953,16.2749206 13.8589369,15.3473016 15.1424302,14.5942857 L15.1424302,14.5942857 C17.1660101,13.407619 19.3948348,12.8149206 21.8282697,12.8149206 L21.8282697,12.8149206 C26.57047,12.8149206 30.4590171,14.3336508 33.4939111,17.3704762 L33.4939111,17.3704762 C36.5291224,20.4079365 38.046728,24.2993651 38.046728,29.0450794 L38.046728,29.0450794 C38.046728,33.6006349 36.5928846,37.3806349 33.6842463,40.3866667 L33.6842463,40.3866667 C30.7759252,43.391746 27.045039,44.8949206 22.4925394,44.8949206 L22.4925394,44.8949206 C17.9486048,44.8949206 14.3423882,43.3260317 11.6751582,40.187619 L11.6751582,40.187619 C10.4725573,38.7736508 8.74019018,37.9190476 6.88442245,37.9190476 L6.88442245,37.9190476 L6.64872408,37.9190476 C0.854604832,37.9190476 -2.0940039,44.9593651 2.02865549,49.0349206 L2.02865549,49.0349206 C3.12086204,50.1146032 4.33107638,51.1234921 5.65834684,52.0609524 L5.65834684,52.0609524 C10.8116711,55.6990476 16.3599408,57.5184127 22.3025214,57.5184127 L22.3025214,57.5184127 C30.2068231,57.5184127 36.9640382,54.7574603 42.5754357,49.2371429 L42.5754357,49.2371429 C48.1871504,43.7165079 50.9923733,37.048254 50.9923733,29.2346032 L50.9923733,29.2346032 C50.9923733,25.1844444 50.2503835,21.372381 48.7638659,17.7977778 L48.7638659,17.7977778 C47.2779829,14.2219048 45.096742,11.0425397 42.2198262,8.25936508 L42.2198262,8.25936508 C39.6277786,5.75936508 36.5373702,3.79015873 32.9489182,2.35079365 L32.9489182,2.35079365 C29.3614178,0.911428571 25.7805791,0.191746032 22.2083055,0.191746032 L22.2083055,0.191746032 C16.1696056,0.191746032 10.6375144,1.98698413 5.61108028,5.57777778" id="path-4"></path>
        <linearGradient x1="69.7332263%" y1="91.8555649%" x2="25.296063%" y2="5.08509063%" id="linearGradient-6">
            <stop stop-color="#00C0F3" offset="0%"></stop>
            <stop stop-color="#007DC5" offset="100%"></stop>
        </linearGradient>
    </defs>
    <g id="Logo" stroke="none" stroke-width="1" fill="none" fill-rule="evenodd">
        <g id="Artboard" transform="translate(-2165.000000, -804.000000)">
            <g id="Logo" transform="translate(2165.000000, 804.000000)">
                <g id="text" transform="translate(88.188620, 10.476190)">
                    <path d="M18.7841444,0.873650794 C22.3827477,0.873650794 25.8274967,2.31428571 28.9635856,4.11492063 C29.3236362,4.32031746 29.3236362,4.73238095 29.1177571,5.04095238 L26.3417189,9.00222222 C26.0844492,9.36285714 25.7761062,9.41428571 25.4160556,9.15714286 C23.8740236,8.02507937 21.5601826,6.99619048 18.8355349,6.99619048 C2.64086851,6.99619048 2.64086851,32.3092063 18.8355349,32.3092063 C22.177503,32.3092063 24.2337571,31.28 25.4677633,30.2511111 C25.7761062,29.9939683 26.1358397,30.0457143 26.3417189,30.3539683 L29.1691475,34.2647619 C29.3750267,34.5726984 29.3236362,34.9844444 29.0149761,35.1907937 C26.2389379,37.3511111 23.2570205,38.4320635 18.7841444,38.4320635 C6.39364326,38.4320635 0.224563757,29.0165079 0.224563757,19.6526984 C0.224563757,10.2374603 6.39364326,0.873650794 18.7841444,0.873650794" id="Fill-1" fill="#231F20"></path>
                    <path d="M14.5683477,19.2413968 L18.3214397,15.5366349 C18.6297826,15.227746 18.9384428,15.2798095 19.2467857,15.5366349 L22.9998777,19.2413968 C23.3082207,19.5499683 23.3082207,19.9096508 22.9998777,20.2188571 L19.2467857,23.9233016 C18.9384428,24.1804444 18.6297826,24.231873 18.3214397,23.9233016 L14.5683477,20.2188571 C14.2600048,19.9617143 14.2600048,19.4985397 14.5683477,19.2413968" id="Fill-3" fill="#0094D9"></path>
                    <path d="M37.497167,1.64526984 L42.3300937,1.64526984 C42.7412176,1.64526984 42.9984873,1.90273016 42.9984873,2.31384127 L42.9984873,15.3306667 C42.9984873,16.2055873 43.5637827,16.7709841 44.4377383,16.7709841 L58.7303221,16.7709841 C59.6042776,16.7709841 60.1698903,16.2055873 60.1698903,15.3306667 L60.1698903,2.31384127 C60.1698903,1.90273016 60.4782332,1.64526984 60.8382839,1.64526984 L65.6708934,1.64526984 C66.0820173,1.64526984 66.3389698,1.90273016 66.3389698,2.31384127 L66.3389698,36.9913016 C66.3389698,37.4030476 66.0820173,37.6601905 65.6708934,37.6601905 L60.8382839,37.6601905 C60.4782332,37.6601905 60.1698903,37.4030476 60.1698903,36.9913016 L60.1698903,23.9744762 C60.1698903,23.099873 59.6042776,22.5341587 58.7303221,22.5341587 L44.4377383,22.5341587 C43.5637827,22.5341587 42.9984873,23.099873 42.9984873,23.9744762 L42.9984873,36.9913016 C42.9984873,37.4030476 42.7412176,37.6601905 42.3300937,37.6601905 L37.497167,37.6601905 C37.086043,37.6601905 36.8290906,37.4030476 36.8290906,36.9913016 L36.8290906,2.31384127 C36.8290906,1.90273016 37.086043,1.64526984 37.497167,1.64526984" id="Fill-5" fill="#231F20"></path>
                    <path d="M72.3538461,37.0430159 L88.599903,1.59412698 C88.7030012,1.33634921 89.0624174,1.13095238 89.3710776,1.13095238 C89.6797377,1.13095238 89.9880807,1.33634921 90.0908617,1.59412698 L106.336919,37.0430159 C106.49109,37.4030159 106.336919,37.6598413 105.925795,37.6598413 L100.887306,37.6598413 C100.476182,37.6598413 100.064741,37.4030159 99.9105694,37.0430159 L98.4710012,33.9046032 C98.1112677,33.1325397 97.2883854,32.6179365 96.4144299,32.6179365 L86.0291095,32.6179365 C85.6179856,32.6179365 85.4638141,32.3607937 85.6179856,32.0004762 L87.7259474,27.4728571 C87.8801189,27.1128571 88.2401695,26.8557143 88.6512935,26.8557143 L93.7925631,26.8557143 C94.6665187,26.8557143 94.9748617,26.3411111 94.6151282,25.5179365 L89.9880807,15.434127 C89.7822015,15.022381 89.5766395,14.8163492 89.3710776,14.8163492 C89.1651984,14.8163492 88.9599536,15.022381 88.7540744,15.434127 L78.7801952,37.0430159 C78.6260238,37.4030159 78.2148998,37.6598413 77.8548492,37.6598413 L72.7652872,37.6598413 C72.3538461,37.6598413 72.1996746,37.4030159 72.3538461,37.0430159" id="Fill-7" fill="#231F20"></path>
                    <path d="M113.019554,1.64526984 L117.852481,1.64526984 C118.263605,1.64526984 118.520874,1.90273016 118.520874,2.31384127 L118.520874,36.9913016 C118.520874,37.4030476 118.263605,37.6601905 117.852481,37.6601905 L113.019554,37.6601905 C112.60843,37.6601905 112.351478,37.4030476 112.351478,36.9913016 L112.351478,2.31384127 C112.351478,1.90273016 112.60843,1.64526984 113.019554,1.64526984" id="Fill-9" fill="#231F20"></path>
                    <path d="M126.33464,2.31428571 C126.33464,1.90253968 126.591592,1.64539683 127.002716,1.64539683 L127.774208,1.64539683 C128.133942,1.64539683 128.596456,1.85111111 128.853408,2.10857143 L148.544214,23.2542857 C148.801484,23.5114286 148.955655,23.6142857 149.161535,23.6142857 C149.367097,23.6142857 149.520951,23.3571429 149.520951,22.8425397 L149.520951,2.31428571 C149.520951,1.90253968 149.778221,1.64539683 150.189345,1.64539683 L155.022271,1.64539683 C155.433395,1.64539683 155.690665,1.90253968 155.690665,2.31428571 L155.690665,36.9907937 C155.690665,37.4028571 155.433395,37.6603175 155.022271,37.6603175 L154.302487,37.6603175 C153.891363,37.6603175 153.428532,37.4542857 153.171579,37.1457143 L133.480773,15.948254 C133.274894,15.6914286 133.069332,15.588254 132.86377,15.588254 C132.658208,15.588254 132.504037,15.8453968 132.504037,16.3596825 L132.504037,36.9907937 C132.504037,37.4028571 132.247084,37.6603175 131.835643,37.6603175 L127.002716,37.6603175 C126.591592,37.6603175 126.33464,37.4028571 126.33464,36.9907937 L126.33464,2.31428571 Z" id="Fill-11" fill="#231F20"></path>
                    <path d="M162.116031,1.64526984 L167.20591,1.64526984 C167.56596,1.64526984 167.977402,1.90273016 168.131256,2.2624127 L178.105135,23.871619 C178.311014,24.2833651 178.516259,24.4890794 178.722138,24.4890794 C178.9277,24.4890794 179.133579,24.2833651 179.339141,23.871619 L189.261313,2.2624127 C189.415801,1.90273016 189.826925,1.64526984 190.237732,1.64526984 L195.276538,1.64526984 C195.687979,1.64526984 195.841833,1.90273016 195.687979,2.2624127 L179.441605,37.7113016 C179.287751,38.0201905 179.030481,38.1741587 178.722138,38.1741587 C178.413478,38.1741587 178.105135,38.0201905 177.950964,37.7113016 L161.704907,2.2624127 C161.550418,1.90273016 161.704907,1.64526984 162.116031,1.64526984" id="Fill-13" fill="#231F20"></path>
                    <path d="M200.879941,17.4404762 C200.879941,17.0287302 201.136577,16.7715873 201.548018,16.7715873 L223.50064,16.7715873 C223.912081,16.7715873 224.169351,17.0287302 224.169351,17.4404762 L224.169351,21.8649206 C224.169351,22.2763492 223.912081,22.534127 223.50064,22.534127 L206.636941,22.5332381 L206.636941,31.8972381 L223.50064,31.8979365 C223.912081,31.8979365 224.169351,32.1553968 224.169351,32.5665079 L224.169351,36.9912698 C224.169351,37.4030159 223.912081,37.6598413 223.50064,37.6598413 L201.548018,37.6598413 C201.136577,37.6598413 200.879941,37.4030159 200.879941,36.9912698 L200.879941,17.4404762 Z M200.879941,6.73888889 L200.879941,2.31444444 C200.879941,1.90269841 201.136577,1.6452381 201.548018,1.6452381 L223.50064,1.6452381 C223.912081,1.6452381 224.169351,1.90269841 224.169351,2.31444444 L224.169351,6.73888889 C224.169351,7.15031746 223.912081,7.40714286 223.50064,7.40714286 L201.548018,7.40714286 C201.136577,7.40714286 200.879941,7.15031746 200.879941,6.73888889 L200.879941,6.73888889 Z" id="Fill-15" fill="#231F20"></path>
                    <path d="M237.330329,15.9998095 C237.330329,16.8747302 237.895624,17.491873 238.76958,17.491873 L242.522671,17.491873 C250.337198,17.491873 250.285808,7.45949206 242.522671,7.45949206 L238.76958,7.45949206 C237.895624,7.45949206 237.330329,8.07663492 237.330329,8.9512381 L237.330329,15.9998095 Z M231.160932,36.9912381 L231.160932,1.90266667 C231.160932,1.74774603 231.263713,1.64520635 231.417884,1.64520635 L241.083103,1.64520635 C242.522671,1.64520635 243.396944,1.64520635 244.012996,1.69631746 C256.249643,2.82869841 258.151725,17.2861587 249.20629,21.7617143 C248.383725,22.1737778 248.229237,22.8426667 248.691434,23.5629841 L257.946163,37.0934603 C258.203433,37.4547302 258.049261,37.6598095 257.63782,37.6598095 L251.622595,37.6598095 C251.211471,37.6598095 250.80003,37.4547302 250.54276,37.0934603 L242.05984,24.4890159 C241.545935,23.7686984 240.671662,23.3058413 239.797707,23.3058413 L238.76958,23.3058413 C237.895624,23.3058413 237.330329,23.8715556 237.330329,24.7461587 L237.330329,36.9912381 C237.330329,37.4029841 237.072742,37.6598095 236.661935,37.6598095 L231.829008,37.6598095 C231.417884,37.6598095 231.160932,37.4029841 231.160932,36.9912381 L231.160932,36.9912381 Z" id="Fill-17" fill="#231F20"></path>
                    <path d="M261.956176,32.4634286 L265.709268,29.5313651 C266.017928,29.3250159 266.377662,29.3250159 266.634614,29.6342222 C268.896747,32.2580317 272.341496,33.0812063 275.68283,33.0812063 C278.407795,33.0812063 282.469547,32.0523175 282.469547,28.6564444 C282.469547,21.7621587 262.470398,22.4824762 262.470398,10.700254 C262.470398,3.65168254 268.331452,0.153587302 274.809192,0.153587302 C279.23036,0.153587302 283.54843,2.15993651 286.942106,4.98946032 C287.250766,5.24692063 287.250766,5.65803175 286.993814,5.91580952 L283.857725,9.46565079 C283.54843,9.77422222 283.189331,9.77422222 282.932379,9.51707937 C280.618538,7.45930159 277.739718,6.22438095 274.603312,6.22438095 C271.518931,6.22438095 268.536697,7.30501587 268.536697,10.9062857 C268.536697,17.080254 288.535846,16.2570794 288.535846,28.8621587 C288.535846,35.859619 281.646665,39.1523175 275.477585,39.1523175 C270.387706,39.1523175 265.143655,37.4031111 261.853395,33.3894603 C261.596443,33.0812063 261.647516,32.7212063 261.956176,32.4634286" id="Fill-19" fill="#231F20"></path>
                    <path d="M295.321516,2.31428571 C295.321516,1.90253968 295.578468,1.64539683 295.989592,1.64539683 L317.942531,1.64539683 C318.353338,1.64539683 318.610925,1.90253968 318.610925,2.31428571 L318.610925,6.73904762 C318.610925,7.14984127 318.353338,7.40761905 317.942531,7.40761905 L302.930798,7.40761905 C302.055891,7.40761905 301.490595,7.97365079 301.490595,8.84857143 L301.490595,15.3311111 C301.490595,16.2057143 302.055891,16.7714286 302.930798,16.7714286 L314.241464,16.7714286 C314.652271,16.7714286 314.908906,17.0288889 314.908906,17.44 L314.908906,21.8650794 C314.908906,22.2768254 314.652271,22.5336508 314.241464,22.5336508 L302.930798,22.5336508 C302.055891,22.5336508 301.490595,23.1 301.490595,23.9742857 L301.490595,30.4568254 C301.490595,31.331746 302.055891,31.8977778 302.930798,31.8977778 L317.942531,31.8977778 C318.353338,31.8977778 318.610925,32.1552381 318.610925,32.5669841 L318.610925,36.9907937 C318.610925,37.4028571 318.353338,37.6603175 317.942531,37.6603175 L295.989592,37.6603175 C295.578468,37.6603175 295.321516,37.4028571 295.321516,36.9907937 L295.321516,2.31428571 Z" id="Fill-21" fill="#231F20"></path>
                    <path d="M20.7255947,53.5751429 L27.0948433,53.5751429 C27.0948433,54.8237143 26.5844279,55.8941905 25.5642315,56.7868889 C24.5855916,57.6427619 23.4413601,58.070381 22.1321715,58.070381 C20.7690546,58.070381 19.59088,57.5951429 18.5976477,56.6443492 C17.6040982,55.693873 17.1073235,54.5341905 17.1073235,53.1659365 C17.1073235,52.5373651 17.2364341,51.9322857 17.4946555,51.3494286 C17.7525596,50.766254 18.1069002,50.2494286 18.5573601,49.7989524 C19.0239984,49.3322857 19.5689914,48.9770476 20.1926563,48.7329206 C20.8163211,48.4891111 21.4628262,48.3672063 22.1321715,48.3672063 C22.6235534,48.3672063 23.1016118,48.4332381 23.5663468,48.565619 C24.0310818,48.698 24.4720249,48.8983175 24.8891761,49.1668889 C25.2400273,49.402127 25.5582042,49.6713333 25.8430725,49.9726032 C26.1777451,50.3281587 26.4048784,50.6776825 26.5247896,51.0208571 L25.4589127,51.0208571 C25.1369291,50.4792698 24.6680701,50.0510159 24.0526532,49.7373651 C23.7430413,49.5802222 23.4321606,49.4624444 23.1203281,49.3840317 C22.8081785,49.305619 22.4788987,49.266254 22.1321715,49.266254 C21.6198527,49.266254 21.1230779,49.353873 20.6418472,49.529746 C20.1606165,49.705619 19.7250663,49.9706984 19.334562,50.3265714 C18.9443749,50.682127 18.6325425,51.1148254 18.3993819,51.6249841 C18.1659041,52.1357778 18.0491652,52.6535556 18.0491652,53.1783175 C18.0491652,54.3068889 18.455848,55.2576825 19.269848,56.0300635 C20.0625939,56.7868889 21.0291793,57.1653016 22.1692868,57.1653016 C23.0242089,57.1653016 23.8118792,56.9110159 24.5329322,56.4024444 C25.253668,55.8941905 25.7317264,55.2351429 25.9671076,54.4246667 L20.7255947,54.4246667 L20.7255947,53.5751429 Z" id="Fill-23" fill="#231F20"></path>
                    <path d="M33.79518,53.9037778 L37.425823,53.9037778 L35.6230319,49.6009206 L33.79518,53.9037778 Z M31.0568916,57.9031429 L35.1024652,48.5221905 L36.1432813,48.5221905 L40.1644286,57.9031429 L39.1483561,57.9031429 L37.7915837,54.7533016 L33.4297365,54.7533016 L32.0666196,57.9031429 L31.0568916,57.9031429 Z" id="Fill-25" fill="#231F20"></path>
                    <polygon id="Fill-27" fill="#231F20" points="44.5723052 57.9030159 44.5723052 48.5220635 46.0159973 48.5220635 49.4420301 56.5074603 52.855691 48.5220635 54.2993832 48.5220635 54.2993832 57.9030159 53.3638859 57.9030159 53.3638859 49.557619 49.8385617 57.9030159 49.0394712 57.9030159 45.5078025 49.557619 45.5078025 57.9030159"></polygon>
                    <polygon id="Fill-29" fill="#231F20" points="59.531633 57.9030159 59.531633 48.5220635 64.6554553 48.5220635 64.6554553 49.3715873 60.4671303 49.3715873 60.4671303 52.7506349 64.5190485 52.7506349 64.5190485 53.5995238 60.4671303 53.5995238 60.4671303 57.0534921 64.6554553 57.0534921 64.6554553 57.9030159"></polygon>
                    <polygon id="Fill-31" fill="#231F20" points="76.4453857 57.9030159 76.4453857 48.5220635 81.2037645 48.5220635 81.2037645 49.3715873 77.3808829 49.3715873 77.3808829 52.7630159 81.0610131 52.7630159 81.0610131 53.6119048 77.3808829 53.6119048 77.3808829 57.9030159"></polygon>
                    <path d="M90.4505634,49.2661905 C89.3475712,49.2661905 88.4019227,49.6547619 87.6129835,50.4319048 C86.8240443,51.2087302 86.4297333,52.1493651 86.4297333,53.2528571 C86.4297333,54.3236508 86.8300716,55.2430159 87.6316998,56.0119048 C88.4326935,56.7807937 89.372632,57.1652381 90.4505634,57.1652381 C91.5535556,57.1652381 92.4973007,56.777619 93.2817988,56.0026984 C94.066614,55.2271429 94.4590217,54.2861905 94.4590217,53.178254 C94.4590217,52.1036508 94.0615384,51.1830159 93.2662547,50.4163492 C92.4712882,49.6496825 91.5326187,49.2661905 90.4505634,49.2661905 M90.4381916,48.3671429 C91.7803716,48.3671429 92.9433194,48.8344444 93.9264005,49.7684127 C94.9091643,50.7020635 95.4008634,51.8388889 95.4008634,53.178254 C95.4008634,54.53 94.9145571,55.6833333 93.9416273,56.638254 C92.9690147,57.5928571 91.8013085,58.07 90.4381916,58.07 C89.11219,58.07 87.9597107,57.6055556 86.9810708,56.6753968 C85.9856179,55.7249206 85.4878915,54.5839683 85.4878915,53.2528571 C85.4878915,51.8969841 85.9719772,50.7439683 86.9407832,49.7931746 C87.9092719,48.842381 89.0750747,48.3671429 90.4381916,48.3671429" id="Fill-33" fill="#231F20"></path>
                    <path d="M100.223988,57.9030159 L100.223988,48.5220635 L102.454399,48.5220635 C102.640293,48.5220635 102.826187,48.5242857 103.012081,48.5284127 C103.197975,48.5366667 103.348657,48.5430159 103.464127,48.5465079 C103.608781,48.5465079 103.743919,48.5563492 103.870175,48.5747619 C103.996113,48.5934921 104.143623,48.6249206 104.313021,48.6709524 C104.602014,48.7328571 104.870703,48.8344444 105.118456,48.9747619 C105.589536,49.2392063 105.950855,49.6011111 106.202732,50.0598413 C106.454609,50.5185714 106.580865,51.0249206 106.580865,51.5788889 C106.580865,52.3477778 106.309003,53.01 105.765913,53.565873 C105.222823,54.1220635 104.571243,54.3998413 103.811171,54.3998413 L106.450485,57.9030159 L105.285951,57.9030159 L102.10101,53.6496825 L102.379851,53.6496825 L102.627921,53.6496825 L102.782727,53.6496825 L102.906762,53.6496825 L103.005736,53.6496825 L103.092339,53.6496825 L103.160542,53.6496825 C103.334064,53.6496825 103.462223,53.6388889 103.544702,53.6185714 C103.871127,53.5814286 104.164243,53.5065079 104.424685,53.3953968 C104.804403,53.221746 105.101961,52.9639683 105.316722,52.6233333 C105.531484,52.2826984 105.639023,51.9049206 105.639023,51.4922222 C105.639023,51.1649206 105.560351,50.8493651 105.403642,50.5430159 C105.246615,50.237619 105.032806,49.9925397 104.762212,49.8087302 C104.491619,49.6249206 104.154092,49.4973016 103.749312,49.4274603 C103.505366,49.3903175 103.138019,49.3715873 102.64632,49.3715873 L101.159485,49.3715873 L101.159485,57.9030159 L100.223988,57.9030159 Z" id="Fill-35" fill="#231F20"></path>
                    <polygon id="Fill-37" fill="#231F20" points="118.036154 57.9030159 118.036154 48.5220635 122.794533 48.5220635 122.794533 49.3715873 118.971651 49.3715873 118.971651 52.7630159 122.651782 52.7630159 122.651782 53.6119048 118.971651 53.6119048 118.971651 57.9030159"></polygon>
                    <path d="M127.487532,48.522127 L128.423029,48.522127 L128.423029,54.2199048 C128.423029,54.6253016 128.450945,54.9853016 128.506776,55.3014921 C128.562608,55.6183175 128.682202,55.9211746 128.866193,56.210381 C129.049866,56.4999048 129.304915,56.7306984 129.631023,56.9043492 C129.957447,57.0783175 130.308616,57.1653016 130.684528,57.1653016 C131.027131,57.1653016 131.350384,57.0919683 131.653968,56.9449841 C131.957553,56.798 132.20943,56.5906984 132.409916,56.3214921 C132.610085,56.0535556 132.753788,55.7186349 132.840708,55.3173651 C132.898443,55.0281587 132.92731,54.6624444 132.92731,54.2199048 L132.92731,48.522127 L133.869152,48.522127 L133.869152,54.2199048 C133.869152,54.7948254 133.829816,55.2576825 133.751461,55.6087937 C133.643922,56.0802222 133.448829,56.5040317 133.165864,56.8799048 C132.882899,57.2560952 132.519359,57.5487937 132.075243,57.7573651 C131.631445,57.9659365 131.167662,58.070381 130.684528,58.070381 C130.196953,58.070381 129.744907,57.9748254 129.327438,57.7853016 C128.910287,57.5951429 128.548967,57.3160952 128.243479,56.9481587 C127.937674,56.5805397 127.729257,56.1500635 127.617594,55.6583175 C127.530992,55.2865714 127.487532,54.8072063 127.487532,54.2199048 L127.487532,48.522127 Z" id="Fill-39" fill="#231F20"></path>
                    <polygon id="Fill-41" fill="#231F20" points="139.09474 57.9030159 139.09474 48.5220635 140.358566 48.5220635 145.61245 56.3033333 145.61245 48.5220635 146.554292 48.5220635 146.554292 57.9030159 145.61245 57.9030159 140.030237 49.6506349 140.030237 57.9030159"></polygon>
                    <polygon id="Fill-43" fill="#231F20" points="151.972277 58.7524762 153.093669 56.3032698 154.029166 56.3032698 152.914119 58.7524762"></polygon>
                    <polygon id="Fill-45" fill="#231F20" points="165.410351 57.9030159 165.410351 48.5220635 170.533857 48.5220635 170.533857 49.3715873 166.345849 49.3715873 166.345849 52.7506349 170.397767 52.7506349 170.397767 53.5995238 166.345849 53.5995238 166.345849 57.0534921 170.533857 57.0534921 170.533857 57.9030159"></polygon>
                    <path d="M177.426812,53.9037778 L181.056821,53.9037778 L179.254664,49.6009206 L177.426812,53.9037778 Z M174.688207,57.9031429 L178.734098,48.5221905 L179.774914,48.5221905 L183.795427,57.9031429 L182.779354,57.9031429 L181.422582,54.7533016 L177.061369,54.7533016 L175.698252,57.9031429 L174.688207,57.9031429 Z" id="Fill-47" fill="#231F20"></path>
                    <path d="M188.203779,57.9030159 L188.203779,48.5220635 L190.43419,48.5220635 C190.620084,48.5220635 190.805978,48.5242857 190.991872,48.5284127 C191.177766,48.5366667 191.328448,48.5430159 191.444235,48.5465079 C191.588572,48.5465079 191.724028,48.5563492 191.849966,48.5747619 C191.975904,48.5934921 192.123097,48.6249206 192.29313,48.6709524 C192.582122,48.7328571 192.84986,48.8344444 193.098247,48.9747619 C193.56901,49.2392063 193.930646,49.6011111 194.182523,50.0598413 C194.4344,50.5185714 194.560339,51.0249206 194.560339,51.5788889 C194.560339,52.3477778 194.288794,53.01 193.745704,53.565873 C193.202614,54.1220635 192.551034,54.3998413 191.791279,54.3998413 L194.430276,57.9030159 L193.265425,57.9030159 L190.081118,53.6496825 L190.359959,53.6496825 L190.607712,53.6496825 L190.762518,53.6496825 L190.886553,53.6496825 L190.985844,53.6496825 L191.072447,53.6496825 L191.14065,53.6496825 C191.314173,53.6496825 191.442014,53.6388889 191.52481,53.6185714 C191.850918,53.5814286 192.144351,53.5065079 192.404476,53.3953968 C192.783877,53.221746 193.081752,52.9639683 193.296513,52.6233333 C193.510957,52.2826984 193.618497,51.9049206 193.618497,51.4922222 C193.618497,51.1649206 193.540142,50.8493651 193.383116,50.5430159 C193.226406,50.237619 193.012597,49.9925397 192.742003,49.8087302 C192.47141,49.6249206 192.133883,49.4973016 191.729103,49.4274603 C191.485474,49.3903175 191.11781,49.3715873 190.626428,49.3715873 L189.139276,49.3715873 L189.139276,57.9030159 L188.203779,57.9030159 Z" id="Fill-49" fill="#231F20"></path>
                    <polygon id="Fill-51" fill="#231F20" points="199.204136 57.9030159 199.204136 48.5220635 200.467961 48.5220635 205.721846 56.3033333 205.721846 48.5220635 206.663687 48.5220635 206.663687 57.9030159 205.721846 57.9030159 200.139633 49.6506349 200.139633 57.9030159"></polygon>
                    <polygon id="Fill-53" fill="#231F20" points="218.70762 57.9030159 218.70762 48.5220635 223.465682 48.5220635 223.465682 49.3715873 219.643117 49.3715873 219.643117 52.7630159 223.323247 52.7630159 223.323247 53.6119048 219.643117 53.6119048 219.643117 57.9030159"></polygon>
                    <path d="M232.71229,49.2661905 C231.609615,49.2661905 230.663649,49.6547619 229.875028,50.4319048 C229.085771,51.2087302 228.69146,52.1493651 228.69146,53.2528571 C228.69146,54.3236508 229.092116,55.2430159 229.893427,56.0119048 C230.694738,56.7807937 231.634676,57.1652381 232.71229,57.1652381 C233.815282,57.1652381 234.759028,56.777619 235.543843,56.0026984 C236.328341,55.2271429 236.721066,54.2861905 236.721066,53.178254 C236.721066,52.1036508 236.323582,51.1830159 235.528299,50.4163492 C234.733015,49.6496825 233.794663,49.2661905 232.71229,49.2661905 M232.699918,48.3671429 C234.042098,48.3671429 235.205046,48.8344444 236.188127,49.7684127 C237.171208,50.7020635 237.662273,51.8388889 237.662273,53.178254 C237.662273,54.53 237.176284,55.6833333 236.203671,56.638254 C235.230424,57.5928571 234.063035,58.07 232.699918,58.07 C231.374234,58.07 230.221755,57.6055556 229.242798,56.6753968 C228.247345,55.7249206 227.749618,54.5839683 227.749618,53.2528571 C227.749618,51.8969841 228.234021,50.7439683 229.202827,49.7931746 C230.170999,48.842381 231.337119,48.3671429 232.699918,48.3671429" id="Fill-55" fill="#231F20"></path>
                    <path d="M242.486191,57.9030159 L242.486191,48.5220635 L244.716601,48.5220635 C244.902495,48.5220635 245.088389,48.5242857 245.274283,48.5284127 C245.460177,48.5366667 245.610859,48.5430159 245.726647,48.5465079 C245.870984,48.5465079 246.006439,48.5563492 246.132378,48.5747619 C246.258316,48.5934921 246.405826,48.6249206 246.575541,48.6709524 C246.864534,48.7328571 247.132589,48.8344444 247.380659,48.9747619 C247.851421,49.2392063 248.213058,49.6011111 248.464935,50.0598413 C248.716812,50.5185714 248.84275,51.0249206 248.84275,51.5788889 C248.84275,52.3477778 248.571205,53.01 248.028116,53.565873 C247.485026,54.1220635 246.833445,54.3998413 246.073691,54.3998413 L248.712688,57.9030159 L247.547837,57.9030159 L244.36353,53.6496825 L244.642371,53.6496825 L244.890124,53.6496825 L245.044929,53.6496825 L245.168965,53.6496825 L245.268573,53.6496825 L245.354859,53.6496825 L245.423062,53.6496825 C245.596584,53.6496825 245.724426,53.6388889 245.807222,53.6185714 C246.133329,53.5814286 246.426763,53.5065079 246.686887,53.3953968 C247.066606,53.221746 247.364163,52.9639683 247.578925,52.6233333 C247.793686,52.2826984 247.900908,51.9049206 247.900908,51.4922222 C247.900908,51.1649206 247.822554,50.8493651 247.665527,50.5430159 C247.508818,50.237619 247.295008,49.9925397 247.024415,49.8087302 C246.753822,49.6249206 246.416294,49.4973016 246.011515,49.4274603 C245.767886,49.3903175 245.400539,49.3715873 244.90884,49.3715873 L243.421688,49.3715873 L243.421688,57.9030159 L242.486191,57.9030159 Z" id="Fill-57" fill="#231F20"></path>
                    <path d="M260.298515,57.9030159 L260.298515,48.5220635 L262.528926,48.5220635 C262.71482,48.5220635 262.900714,48.5242857 263.086608,48.5284127 C263.272502,48.5366667 263.423184,48.5430159 263.538971,48.5465079 C263.683309,48.5465079 263.818764,48.5563492 263.944702,48.5747619 C264.070641,48.5934921 264.218151,48.6249206 264.387866,48.6709524 C264.676858,48.7328571 264.944914,48.8344444 265.192984,48.9747619 C265.663746,49.2392063 266.025383,49.6011111 266.27726,50.0598413 C266.529137,50.5185714 266.655075,51.0249206 266.655075,51.5788889 C266.655075,52.3477778 266.38353,53.01 265.840441,53.565873 C265.297351,54.1220635 264.64577,54.3998413 263.886016,54.3998413 L266.525013,57.9030159 L265.360162,57.9030159 L262.175854,53.6496825 L262.454695,53.6496825 L262.702448,53.6496825 L262.857254,53.6496825 L262.981289,53.6496825 L263.080898,53.6496825 L263.167183,53.6496825 L263.235387,53.6496825 C263.408909,53.6496825 263.536751,53.6388889 263.619547,53.6185714 C263.945654,53.5814286 264.239088,53.5065079 264.499212,53.3953968 C264.878931,53.221746 265.176488,52.9639683 265.39125,52.6233333 C265.606011,52.2826984 265.713233,51.9049206 265.713233,51.4922222 C265.713233,51.1649206 265.634879,50.8493651 265.477852,50.5430159 C265.321143,50.237619 265.107333,49.9925397 264.83674,49.8087302 C264.566147,49.6249206 264.228619,49.4973016 263.82384,49.4274603 C263.580211,49.3903175 263.212864,49.3715873 262.721165,49.3715873 L261.234013,49.3715873 L261.234013,57.9030159 L260.298515,57.9030159 Z" id="Fill-59" fill="#231F20"></path>
                    <polygon id="Fill-61" fill="#231F20" points="271.298523 57.9030159 271.298523 48.5220635 276.422028 48.5220635 276.422028 49.3715873 272.23402 49.3715873 272.23402 52.7506349 276.285939 52.7506349 276.285939 53.5995238 272.23402 53.5995238 272.23402 57.0534921 276.422028 57.0534921 276.422028 57.9030159"></polygon>
                    <path d="M283.314667,53.9037778 L286.944993,53.9037778 L285.142519,49.6009206 L283.314667,53.9037778 Z M280.576061,57.9031429 L284.621952,48.5221905 L285.662768,48.5221905 L289.683598,57.9031429 L288.667526,57.9031429 L287.310753,54.7533016 L282.949223,54.7533016 L281.586106,57.9031429 L280.576061,57.9031429 Z" id="Fill-63" fill="#231F20"></path>
                    <polygon id="Fill-65" fill="#231F20" points="294.091982 57.9030159 294.091982 48.5220635 295.02748 48.5220635 295.02748 57.0534921 298.911903 57.0534921 298.911903 57.9030159"></polygon>
                </g>
                <g id="icon">
                    <g id="Group-70">
                        <mask id="mask-2" fill="white">
                            <use xlink:href="#path-1"></use>
                        </mask>
                        <g id="Clip-69"></g>
                        <path d="M8.52130475,8.4352381 C2.90990725,13.9561905 0.105001559,20.624127 0.105001559,28.4380952 L0.105001559,28.4380952 C0.105001559,32.4879365 0.847308652,36.3 2.33350896,39.8746032 L2.33350896,39.8746032 C3.81907482,43.4501587 6.00031567,46.6298413 8.87754871,49.4133333 L8.87754871,49.4133333 C11.469279,51.9130159 14.5596875,53.8822222 18.1484567,55.3215873 L18.1484567,55.3215873 C21.7359571,56.7609524 25.3161613,57.4809524 28.8890694,57.4809524 L28.8890694,57.4809524 C34.9271348,57.4809524 40.4595433,55.6853968 45.4856602,52.0946032 L45.4856602,52.0946032 C46.641629,51.2695238 47.7094092,50.3892063 48.6896352,49.4542857 L48.6896352,49.4542857 C52.9458465,45.3942857 50.0759096,38.2136508 44.1951878,38.2136508 L44.1951878,38.2136508 L44.1723476,38.2136508 C42.363212,38.2136508 40.6314793,38.9634921 39.4050865,40.2942857 L39.4050865,40.2942857 C38.3877451,41.3974603 37.238438,42.3250794 35.9549447,43.0780952 L35.9549447,43.0780952 C33.9310475,44.264127 31.7022229,44.8574603 29.2684708,44.8574603 L29.2684708,44.8574603 C24.5262705,44.8574603 20.6377233,43.3390476 17.6031465,40.3015873 L17.6031465,40.3015873 C14.5682525,37.2644444 13.0503297,33.3730159 13.0503297,28.6273016 L13.0503297,28.6273016 C13.0503297,24.0720635 14.504173,20.291746 17.4131286,17.2857143 L17.4131286,17.2857143 C20.3214497,14.2806349 24.0523359,12.7774603 28.6045183,12.7774603 L28.6045183,12.7774603 C33.1484528,12.7774603 36.7546695,14.3466667 39.4218995,17.4844444 L39.4218995,17.4844444 C40.6245004,18.8990476 42.3568675,19.7533333 44.2126352,19.7533333 L44.2126352,19.7533333 L44.4483336,19.7533333 C50.2427701,19.7533333 53.1907443,12.7130159 49.0684022,8.63809524 L49.0684022,8.63809524 C47.9761956,7.55777778 46.7662985,6.54920635 45.4387108,5.61174603 L45.4387108,5.61174603 C40.2853866,1.97365079 34.7374341,0.154285714 28.794219,0.154285714 L28.794219,0.154285714 C20.8902346,0.154285714 14.1330195,2.91492063 8.52130475,8.4352381" id="Fill-68" fill="url(#linearGradient-3)" mask="url(#mask-2)"></path>
                    </g>
                    <g id="Group-73" transform="translate(20.302416, 22.222222)">
                        <mask id="mask-5" fill="white">
                            <use xlink:href="#path-4"></use>
                        </mask>
                        <g id="Clip-72"></g>
                        <path d="M5.61108028,5.57777778 C4.45542868,6.4031746 3.38796571,7.28349206 2.40773967,8.2184127 L2.40773967,8.2184127 C-1.84847155,12.2784127 1.02114809,19.4587302 6.90186984,19.4587302 L6.90186984,19.4587302 L6.92534451,19.4587302 C8.73384567,19.4587302 10.4655783,18.7088889 11.6922884,17.3780952 L11.6922884,17.3780952 C12.7089953,16.2749206 13.8589369,15.3473016 15.1424302,14.5942857 L15.1424302,14.5942857 C17.1660101,13.407619 19.3948348,12.8149206 21.8282697,12.8149206 L21.8282697,12.8149206 C26.57047,12.8149206 30.4590171,14.3336508 33.4939111,17.3704762 L33.4939111,17.3704762 C36.5291224,20.4079365 38.046728,24.2993651 38.046728,29.0450794 L38.046728,29.0450794 C38.046728,33.6006349 36.5928846,37.3806349 33.6842463,40.3866667 L33.6842463,40.3866667 C30.7759252,43.391746 27.045039,44.8949206 22.4925394,44.8949206 L22.4925394,44.8949206 C17.9486048,44.8949206 14.3423882,43.3260317 11.6751582,40.187619 L11.6751582,40.187619 C10.4725573,38.7736508 8.74019018,37.9190476 6.88442245,37.9190476 L6.88442245,37.9190476 L6.64872408,37.9190476 C0.854604832,37.9190476 -2.0940039,44.9593651 2.02865549,49.0349206 L2.02865549,49.0349206 C3.12086204,50.1146032 4.33107638,51.1234921 5.65834684,52.0609524 L5.65834684,52.0609524 C10.8116711,55.6990476 16.3599408,57.5184127 22.3025214,57.5184127 L22.3025214,57.5184127 C30.2068231,57.5184127 36.9640382,54.7574603 42.5754357,49.2371429 L42.5754357,49.2371429 C48.1871504,43.7165079 50.9923733,37.048254 50.9923733,29.2346032 L50.9923733,29.2346032 C50.9923733,25.1844444 50.2503835,21.372381 48.7638659,17.7977778 L48.7638659,17.7977778 C47.2779829,14.2219048 45.096742,11.0425397 42.2198262,8.25936508 L42.2198262,8.25936508 C39.6277786,5.75936508 36.5373702,3.79015873 32.9489182,2.35079365 L32.9489182,2.35079365 C29.3614178,0.911428571 25.7805791,0.191746032 22.2083055,0.191746032 L22.2083055,0.191746032 C16.1696056,0.191746032 10.6375144,1.98698413 5.61108028,5.57777778" id="Fill-71" fill="url(#linearGradient-6)" mask="url(#mask-5)"></path>
                    </g>
                </g>
            </g>
        </g>
    </g>
</svg>