<?xml version="1.0" encoding="UTF-8"?>
<svg width="466px" height="67px" viewBox="0 0 466 67" version="1.1" xmlns="http://www.w3.org/2000/svg" xmlns:xlink="http://www.w3.org/1999/xlink">
    <title>Group 33</title>
    <defs>
        <polygon id="path-1" points="0 0.1989 59.3337 0.1989 59.3337 60.9999 0 60.9999"></polygon>
        <polygon id="path-3" points="0.5193 0.894 106.8303 0.894 106.8303 66 0.5193 66"></polygon>
    </defs>
    <g id="Logo" stroke="none" stroke-width="1" fill="none" fill-rule="evenodd">
        <g id="Artboard" transform="translate(-1934.000000, -413.000000)">
            <g id="Group-33" transform="translate(1934.000000, 413.000000)">
                <path d="M187.2256,16.3744 C190.5666,16.3744 193.7636,17.7104 196.6736,19.3804 C197.0076,19.5714 197.0076,19.9534 196.8176,20.2394 L194.2406,23.9144 C194.0016,24.2484 193.7156,24.2954 193.3806,24.0574 C191.9506,23.0074 189.8026,22.0534 187.2736,22.0534 C172.2426,22.0534 172.2426,45.5304 187.2736,45.5304 C190.3746,45.5304 192.2846,44.5754 193.4296,43.6214 C193.7156,43.3824 194.0496,43.4304 194.2406,43.7164 L196.8656,47.3434 C197.0556,47.6294 197.0076,48.0114 196.7216,48.2024 C194.1456,50.2064 191.3766,51.2084 187.2256,51.2084 C175.7256,51.2084 169.9996,42.4764 169.9996,33.7914 C169.9996,25.0594 175.7256,16.3744 187.2256,16.3744" id="Fill-1" fill="#231F20"></path>
                <path d="M204.5947,17.0902 L209.0797,17.0902 C209.4617,17.0902 209.6997,17.3292 209.6997,17.7112 L209.6997,29.7832 C209.6997,30.5942 210.2257,31.1192 211.0357,31.1192 L224.3017,31.1192 C225.1137,31.1192 225.6387,30.5942 225.6387,29.7832 L225.6387,17.7112 C225.6387,17.3292 225.9247,17.0902 226.2587,17.0902 L230.7437,17.0902 C231.1257,17.0902 231.3647,17.3292 231.3647,17.7112 L231.3647,49.8722 C231.3647,50.2542 231.1257,50.4932 230.7437,50.4932 L226.2587,50.4932 C225.9247,50.4932 225.6387,50.2542 225.6387,49.8722 L225.6387,37.7992 C225.6387,36.9882 225.1137,36.4642 224.3017,36.4642 L211.0357,36.4642 C210.2257,36.4642 209.6997,36.9882 209.6997,37.7992 L209.6997,49.8722 C209.6997,50.2542 209.4617,50.4932 209.0797,50.4932 L204.5947,50.4932 C204.2127,50.4932 203.9747,50.2542 203.9747,49.8722 L203.9747,17.7112 C203.9747,17.3292 204.2127,17.0902 204.5947,17.0902" id="Fill-3" fill="#231F20"></path>
                <path d="M236.9473,49.9203 L252.0253,17.0433 C252.1213,16.8043 252.4553,16.6133 252.7413,16.6133 C253.0283,16.6133 253.3143,16.8043 253.4093,17.0433 L268.4883,49.9203 C268.6323,50.2543 268.4883,50.4933 268.1063,50.4933 L263.4303,50.4933 C263.0493,50.4933 262.6673,50.2543 262.5233,49.9203 L261.1873,47.0093 C260.8533,46.2943 260.0903,45.8163 259.2793,45.8163 L249.6393,45.8163 C249.2583,45.8163 249.1153,45.5783 249.2583,45.2433 L251.2153,41.0443 C251.3573,40.7113 251.6913,40.4723 252.0733,40.4723 L256.8453,40.4723 C257.6563,40.4723 257.9423,39.9953 257.6083,39.2313 L253.3143,29.8783 C253.1233,29.4973 252.9323,29.3063 252.7413,29.3063 C252.5513,29.3063 252.3603,29.4973 252.1693,29.8783 L242.9113,49.9203 C242.7683,50.2543 242.3863,50.4933 242.0523,50.4933 L237.3293,50.4933 C236.9473,50.4933 236.8033,50.2543 236.9473,49.9203" id="Fill-5" fill="#231F20"></path>
                <path d="M274.6914,17.0902 L279.1764,17.0902 C279.5584,17.0902 279.7964,17.3292 279.7964,17.7112 L279.7964,49.8722 C279.7964,50.2542 279.5584,50.4932 279.1764,50.4932 L274.6914,50.4932 C274.3094,50.4932 274.0714,50.2542 274.0714,49.8722 L274.0714,17.7112 C274.0714,17.3292 274.3094,17.0902 274.6914,17.0902" id="Fill-7" fill="#231F20"></path>
                <path d="M287.0498,17.7108 C287.0498,17.3288 287.2878,17.0898 287.6698,17.0898 L288.3858,17.0898 C288.7198,17.0898 289.1488,17.2808 289.3878,17.5198 L307.6628,37.1318 C307.9028,37.3708 308.0448,37.4658 308.2368,37.4658 C308.4268,37.4658 308.5708,37.2278 308.5708,36.7498 L308.5708,17.7108 C308.5708,17.3288 308.8088,17.0898 309.1908,17.0898 L313.6758,17.0898 C314.0578,17.0898 314.2968,17.3288 314.2968,17.7108 L314.2968,49.8728 C314.2968,50.2538 314.0578,50.4928 313.6758,50.4928 L313.0078,50.4928 C312.6258,50.4928 312.1968,50.3018 311.9578,50.0158 L293.6828,30.3558 C293.4908,30.1178 293.3008,30.0218 293.1098,30.0218 C292.9188,30.0218 292.7758,30.2608 292.7758,30.7368 L292.7758,49.8728 C292.7758,50.2538 292.5368,50.4928 292.1548,50.4928 L287.6698,50.4928 C287.2878,50.4928 287.0498,50.2538 287.0498,49.8728 L287.0498,17.7108 Z" id="Fill-9" fill="#231F20"></path>
                <path d="M320.2597,17.0902 L324.9847,17.0902 C325.3187,17.0902 325.6997,17.3292 325.8427,17.6632 L335.1007,37.7042 C335.2917,38.0862 335.4827,38.2772 335.6727,38.2772 C335.8637,38.2772 336.0547,38.0862 336.2457,37.7042 L345.4547,17.6632 C345.5987,17.3292 345.9807,17.0902 346.3617,17.0902 L351.0377,17.0902 C351.4197,17.0902 351.5627,17.3292 351.4197,17.6632 L336.3407,50.5402 C336.1977,50.8272 335.9587,50.9702 335.6727,50.9702 C335.3867,50.9702 335.1007,50.8272 334.9567,50.5402 L319.8787,17.6632 C319.7357,17.3292 319.8787,17.0902 320.2597,17.0902" id="Fill-11" fill="#231F20"></path>
                <path d="M377.2343,31.1195 L356.8593,31.1195 C356.4773,31.1195 356.2393,31.3575 356.2393,31.7395 L356.2393,33.0725 L356.2393,35.8435 L356.2393,45.7685 L356.2393,48.8865 L356.2393,49.8725 C356.2393,50.2545 356.4773,50.4935 356.8593,50.4935 L377.2343,50.4935 C377.6163,50.4935 377.8553,50.2545 377.8553,49.8725 L377.8553,45.7685 C377.8553,45.3875 377.6163,45.1485 377.2343,45.1485 L361.5833,45.1485 L361.5833,36.4635 L377.2343,36.4635 C377.6163,36.4635 377.8553,36.2245 377.8553,35.8435 L377.8553,31.7395 C377.8553,31.3575 377.6163,31.1195 377.2343,31.1195" id="Fill-13" fill="#231F20"></path>
                <path d="M377.2343,17.0902 L356.8593,17.0902 C356.4773,17.0902 356.2393,17.3292 356.2393,17.7112 L356.2393,21.8142 C356.2393,22.1962 356.4773,22.4342 356.8593,22.4342 L377.2343,22.4342 C377.6163,22.4342 377.8553,22.1962 377.8553,21.8142 L377.8553,17.7112 C377.8553,17.3292 377.6163,17.0902 377.2343,17.0902" id="Fill-15" fill="#231F20"></path>
                <path d="M390.0703,30.4037 C390.0703,31.2157 390.5953,31.7877 391.4063,31.7877 L394.8893,31.7877 C402.1433,31.7877 402.0953,22.4827 394.8893,22.4827 L391.4063,22.4827 C390.5953,22.4827 390.0703,23.0547 390.0703,23.8657 L390.0703,30.4037 Z M384.3443,49.8727 L384.3443,17.3287 C384.3443,17.1857 384.4403,17.0907 384.5833,17.0907 L393.5533,17.0907 C394.8893,17.0907 395.7013,17.0907 396.2733,17.1377 C407.6313,18.1877 409.3963,31.5967 401.0933,35.7477 C400.3303,36.1297 400.1863,36.7497 400.6163,37.4187 L409.2053,49.9677 C409.4443,50.3017 409.3003,50.4927 408.9193,50.4927 L403.3363,50.4927 C402.9553,50.4927 402.5723,50.3017 402.3343,49.9677 L394.4613,38.2777 C393.9833,37.6087 393.1723,37.1797 392.3613,37.1797 L391.4063,37.1797 C390.5953,37.1797 390.0703,37.7047 390.0703,38.5157 L390.0703,49.8727 C390.0703,50.2547 389.8323,50.4927 389.4503,50.4927 L384.9653,50.4927 C384.5833,50.4927 384.3443,50.2547 384.3443,49.8727 L384.3443,49.8727 Z" id="Fill-17" fill="#231F20"></path>
                <path d="M412.9277,45.6732 L416.4107,42.9532 C416.6977,42.7622 417.0317,42.7622 417.2697,43.0492 C419.3687,45.4832 422.5667,46.2462 425.6677,46.2462 C428.1977,46.2462 431.9667,45.2922 431.9667,42.1422 C431.9667,35.7482 413.4047,36.4162 413.4047,25.4882 C413.4047,18.9512 418.8447,15.7072 424.8577,15.7072 C428.9607,15.7072 432.9687,17.5682 436.1177,20.1922 C436.4047,20.4302 436.4047,20.8122 436.1657,21.0512 L433.2557,24.3432 C432.9687,24.6302 432.6347,24.6302 432.3967,24.3912 C430.2487,22.4822 427.5767,21.3372 424.6657,21.3372 C421.8027,21.3372 419.0347,22.3392 419.0347,25.6792 C419.0347,31.4052 437.5977,30.6422 437.5977,42.3332 C437.5977,48.8232 431.2027,51.8772 425.4777,51.8772 C420.7527,51.8772 415.8857,50.2542 412.8317,46.5322 C412.5937,46.2462 412.6407,45.9122 412.9277,45.6732" id="Fill-19" fill="#231F20"></path>
                <path d="M443.8955,17.7108 C443.8955,17.3288 444.1335,17.0898 444.5155,17.0898 L464.8915,17.0898 C465.2735,17.0898 465.5115,17.3288 465.5115,17.7108 L465.5115,21.8148 C465.5115,22.1958 465.2735,22.4348 464.8915,22.4348 L450.9575,22.4348 C450.1465,22.4348 449.6215,22.9598 449.6215,23.7708 L449.6215,29.7838 C449.6215,30.5948 450.1465,31.1188 450.9575,31.1188 L461.4565,31.1188 C461.8375,31.1188 462.0765,31.3578 462.0765,31.7398 L462.0765,35.8438 C462.0765,36.2258 461.8375,36.4638 461.4565,36.4638 L450.9575,36.4638 C450.1465,36.4638 449.6215,36.9888 449.6215,37.7998 L449.6215,43.8128 C449.6215,44.6238 450.1465,45.1478 450.9575,45.1478 L464.8915,45.1478 C465.2735,45.1478 465.5115,45.3868 465.5115,45.7688 L465.5115,49.8728 C465.5115,50.2538 465.2735,50.4928 464.8915,50.4928 L444.5155,50.4928 C444.1335,50.4928 443.8955,50.2538 443.8955,49.8728 L443.8955,17.7108 Z" id="Fill-21" fill="#231F20"></path>
                <path d="M190.7236,33.8632 C190.7236,35.8612 189.1046,37.4802 187.1066,37.4802 C185.1096,37.4802 183.4896,35.8612 183.4896,33.8632 C183.4896,31.8652 185.1096,30.2462 187.1066,30.2462 C189.1046,30.2462 190.7236,31.8652 190.7236,33.8632" id="Fill-23" fill="#0094D9"></path>
                <g id="Group-27" transform="translate(0.000000, 5.106200)">
                    <mask id="mask-2" fill="white">
                        <use xlink:href="#path-1"></use>
                    </mask>
                    <g id="Clip-26"></g>
                    <path d="M32.5537,46.5319 C22.5657,46.5319 14.4677,38.4349 14.4677,28.4469 C14.4677,20.5319 19.5547,13.8099 26.6347,11.3579 L16.3817,0.1989 C6.5967,5.8139 -0.0003,16.3569 -0.0003,28.4469 C-0.0003,46.4259 14.5747,60.9999 32.5537,60.9999 C43.6577,60.9999 53.4587,55.4349 59.3337,46.9469 L49.0807,35.7869 C46.2657,42.1159 39.9267,46.5319 32.5537,46.5319" id="Fill-25" fill="#0046FF" mask="url(#mask-2)"></path>
                </g>
                <path d="M101.2764,15.4682 C108.6604,15.4682 115.0054,19.8952 117.8154,26.2372 L128.0724,15.0742 C122.1994,6.5732 112.3904,1.0002 101.2764,1.0002 C90.1724,1.0002 80.3724,6.5642 74.4964,15.0522 L84.7504,26.2112 C87.5654,19.8832 93.9034,15.4682 101.2764,15.4682" id="Fill-28" fill="#0046FF"></path>
                <g id="Group-32" transform="translate(27.000000, 0.106200)">
                    <mask id="mask-4" fill="white">
                        <use xlink:href="#path-3"></use>
                    </mask>
                    <g id="Clip-31"></g>
                    <path d="M105.9053,25.7462 L87.7733,45.4792 C84.4623,49.1922 79.6433,51.5322 74.2763,51.5322 C69.2473,51.5322 64.7013,49.4742 61.4233,46.1602 L60.5483,45.2072 C60.4563,45.1002 60.3603,44.9962 60.2713,44.8872 L42.6553,25.7142 C42.6543,25.7202 42.6533,25.7252 42.6513,25.7302 L29.9593,11.9162 C23.9943,5.1602 15.2743,0.8932 5.5533,0.8932 C3.8413,0.8932 2.1603,1.0272 0.5193,1.2822 C0.5193,1.2822 37.1773,41.1642 37.1783,41.1582 L49.7663,54.8572 C55.7333,61.6832 64.4983,66.0002 74.2763,66.0002 C92.2553,66.0002 106.8303,51.4252 106.8303,33.4472 C106.8303,30.7922 106.5043,28.2162 105.9053,25.7462" id="Fill-30" fill="#0046FF" mask="url(#mask-4)"></path>
                </g>
            </g>
        </g>
    </g>
</svg>